<?xml version="1.0" encoding="UTF-8"?>
<svg xmlns="http://www.w3.org/2000/svg" version="1.1" viewBox="0 0 14.7 14.7">
  <defs>
    <style>
      .cls-1 {
        fill: #fff;
      }
    </style>
  </defs>
  <!-- Generator: Adobe Illustrator 28.7.1, SVG Export Plug-In . SVG Version: 1.2.0 Build 142)  -->
  <g>
    <g id="_레이어_1" data-name="레이어_1">
      <g>
        <path class="cls-1" d="M6.5,8.8c-.2,0-.3,0-.4-.2-1.1-1.1-1.1-2.8,0-3.9l2.2-2.2c.5-.5,1.2-.8,2-.8s1.4.3,2,.8c1.1,1.1,1.1,2.8,0,3.9l-1,1c-.2.2-.6.2-.8,0s-.2-.6,0-.8l1-1c.6-.6.6-1.6,0-2.3-.3-.3-.7-.5-1.1-.5s-.8.2-1.1.5l-2.2,2.2c-.6.6-.6,1.6,0,2.3.2.2.2.6,0,.8-.1.1-.3.2-.4.2h0Z"/>
        <path class="cls-1" d="M4.4,13c-.7,0-1.4-.3-2-.8-1.1-1.1-1.1-2.8,0-3.9l1-1c.2-.2.6-.2.8,0,.2.2.2.6,0,.8l-1,1c-.6.6-.6,1.6,0,2.3.3.3.7.5,1.1.5s.8-.2,1.1-.5l2.2-2.2c.6-.6.6-1.6,0-2.3-.2-.2-.2-.6,0-.8s.6-.2.8,0c1.1,1.1,1.1,2.8,0,3.9l-2.2,2.2c-.5.5-1.2.8-2,.8Z"/>
      </g>
    </g>
  </g>
</svg>