<?xml version="1.0" encoding="UTF-8"?>
<svg xmlns="http://www.w3.org/2000/svg" version="1.1" viewBox="0 0 14.7 14.7">
  <defs>
    <style>
      .cls-1 {
        fill: none;
      }

      .cls-2 {
        fill: #040000;
      }
    </style>
  </defs>
  <!-- Generator: Adobe Illustrator 28.7.1, SVG Export Plug-In . SVG Version: 1.2.0 Build 142)  -->
  <g>
    <g id="_레이어_2">
      <g id="_레이어_1-2">
        <path class="cls-2" d="M3.5,3.9h-.5c-.5,0-1,.2-1.3.6-.3.3-.6.8-.6,1.3v4.6c0,.5.2,1,.6,1.3s.8.6,1.3.6h8.7c.5,0,1-.2,1.3-.6.3-.3.6-.8.6-1.3v-4.6c0-.5-.2-1-.6-1.3s-.8-.6-1.3-.6h-3.4v-1.2c0-.2-.2-.3-.3-.3s-.2,0-.2,0l-2.4,1.9c-.2.1-.2.3,0,.5h0c0,0,2.5,2,2.5,2,.2.1.4,0,.5,0,0,0,0-.1,0-.2h0v-1.3h3.4c.1,0,.2,0,.3.1s.1.2.1.3v4.6c0,.1,0,.2-.1.3s-.2.1-.3.1H3c-.1,0-.2,0-.3-.1s-.1-.2-.1-.3v-4.6c0-.1,0-.2.1-.3,0,0,.2-.1.3-.1h.5v-1.4Z"/>
        <rect class="cls-1" width="14.7" height="14.7"/>
      </g>
    </g>
  </g>
</svg>