<?xml version="1.0" encoding="UTF-8"?>
<svg xmlns="http://www.w3.org/2000/svg" version="1.1" viewBox="0 0 14.7 14.7">
  <defs>
    <style>
      .cls-1 {
        fill: none;
      }

      .cls-2 {
        fill: #040000;
      }
    </style>
  </defs>
  <!-- Generator: Adobe Illustrator 28.7.1, SVG Export Plug-In . SVG Version: 1.2.0 Build 142)  -->
  <g>
    <g id="_레이어_2">
      <g id="_레이어_1-2">
        <path class="cls-2" d="M13.2,9.8c.2.2.2.6,0,.8l-1.9,1.9c-.4.4-1,.1-1-.4v-.9h-1.4c0,0-.1,0-.2,0l-1.7-1.8,1.2-1.3,1.2,1.3h.8v-.9c0-.5.6-.8,1-.4l1.9,1.9h0ZM1.6,5.5h2l1.2,1.3,1.2-1.3-1.7-1.8c0,0-.1,0-.2,0H1.6c-.2,0-.3.1-.3.3v1.3c0,.2.1.3.3.3ZM10.4,5.5v.9c0,.5.6.8,1,.4l1.9-1.9c.2-.2.2-.6,0-.8l-1.9-1.9c-.4-.4-1,0-1,.4v.9h-1.4c0,0-.1,0-.2,0l-5.2,5.5h-2c-.2,0-.3.1-.3.3v1.3c0,.2.1.3.3.3h2.6c0,0,.2,0,.2,0l5.2-5.5h.8Z"/>
        <rect class="cls-1" width="14.7" height="14.7"/>
      </g>
    </g>
  </g>
</svg>