<?xml version="1.0" encoding="UTF-8"?>
<svg xmlns="http://www.w3.org/2000/svg" version="1.1" viewBox="0 0 14.7 14.7">
  <defs>
    <style>
      .cls-1 {
        fill: #fff;
      }

      .cls-2 {
        fill: none;
      }
    </style>
  </defs>
  <!-- Generator: Adobe Illustrator 28.7.1, SVG Export Plug-In . SVG Version: 1.2.0 Build 142)  -->
  <g>
    <g id="_레이어_1" data-name="레이어_1">
      <g id="_레이어_2">
        <g id="_레이어_1-2">
          <rect class="cls-2" x="0" width="14.7" height="14.7"/>
        </g>
      </g>
      <path class="cls-1" d="M10.9,2c.3-.1.6,0,.8.2l1.6,1.6c.1.1.2.3.2.6s0,.4-.2.6l-1.6,1.6c-.2.2-.6.3-.8.2s-.5-.4-.5-.7v-.8h-.8c-.2,0-.5.1-.6.3l-1,1.4-1-1.3.8-1c.4-.6,1.1-.9,1.9-.9h.8v-.8c0-.3.2-.6.5-.7ZM5.1,8l1,1.3-.8,1c-.4.6-1.1.9-1.9.9h-1.6c-.4,0-.8-.3-.8-.8s.3-.8.8-.8h1.6c.2,0,.5-.1.6-.3l1-1.4ZM11.8,12.6c-.2.2-.6.3-.8.2s-.5-.4-.5-.7v-.8h-.8c-.7,0-1.4-.3-1.9-.9l-3.7-5c-.1-.2-.4-.3-.6-.3h-1.6c-.4,0-.8-.3-.8-.8s.3-.8.8-.8h1.6c.7,0,1.4.3,1.9.9l3.7,5c.1.2.4.3.6.3h.8v-.8c0-.3.2-.6.5-.7s.6,0,.8.2l1.6,1.6c.1.1.2.3.2.6s0,.4-.2.6l-1.6,1.6h0Z"/>
    </g>
  </g>
</svg>