<?xml version="1.0" encoding="UTF-8"?>
<svg id="_레이어_2" data-name="레이어_2" xmlns="http://www.w3.org/2000/svg" viewBox="0 0 576.61 99.37">
  <defs>
    <style>
      .cls-1 {
        fill: #fff;
        stroke: #000;
      }

      .cls-1, .cls-2, .cls-3, .cls-4 {
        stroke-miterlimit: 10;
      }

      .cls-2 {
        fill: #feffed;
      }

      .cls-2, .cls-3, .cls-4 {
        stroke: #f387c1;
        stroke-width: .5px;
      }

      .cls-3 {
        fill: #fff391;
      }

      .cls-4 {
        fill: #ffa6e0;
      }
    </style>
  </defs>
  <g id="_레이어_1-2" data-name="레이어_1">
    <path class="cls-3" d="M435.96,45.02V5.92h36.2v48.8h3.5V5.92h35.8v39.1c0,6.67-.95,12.53-2.85,17.6-1.9,5.07-4.53,9.3-7.9,12.7-3.37,3.4-7.35,5.97-11.95,7.7-4.6,1.73-9.63,2.6-15.1,2.6s-10.42-.85-15.05-2.55c-4.63-1.7-8.62-4.25-11.95-7.65-3.33-3.4-5.95-7.63-7.85-12.7-1.9-5.07-2.85-10.97-2.85-17.7Z"/>
    <g>
      <path class="cls-2" d="M536.36,23.02c7.13,0,13.23.5,18.3,1.5,5.07,1,9.2,2.7,12.4,5.1,3.2,2.4,5.55,5.58,7.05,9.55,1.5,3.97,2.25,8.92,2.25,14.85,0,10.67-3.12,18.5-9.35,23.5-6.23,5-15.35,7.2-27.35,6.6v15h-34V23.02h30.7ZM553.96,49.12c-1.2.73-2.78,1.42-4.75,2.05-1.97.63-4.07,1.18-6.3,1.65-2.23.47-4.48.83-6.75,1.1-2.27.27-4.33.4-6.2.4v2.8c1.87,0,4-.12,6.4-.35,2.4-.23,4.8-.58,7.2-1.05,2.4-.47,4.68-1.03,6.85-1.7,2.17-.67,3.95-1.47,5.35-2.4l-1.8-2.5Z"/>
      <ellipse class="cls-1" cx="532.07" cy="35.87" rx="7.06" ry="12.83"/>
      <ellipse class="cls-1" cx="548.51" cy="35.92" rx="7.06" ry="12.83"/>
    </g>
    <path class="cls-2" d="M267.97,50.72c-1.27,0-2.68-.05-4.25-.15-1.57-.1-3.17-.25-4.8-.45-1.63-.2-3.28-.43-4.95-.7-1.67-.27-3.2-.57-4.6-.9v2.9c1.27.33,2.72.62,4.35.85,1.63.23,3.3.45,5,.65,1.7.2,3.35.35,4.95.45,1.6.1,3.03.15,4.3.15v30.4c-3.27.93-6.37,1.52-9.3,1.75-2.93.23-5.57.35-7.9.35-4,0-7.67-.55-11-1.65-3.33-1.1-6.2-2.68-8.6-4.75-2.4-2.07-4.27-4.57-5.6-7.5-1.33-2.93-2-6.27-2-10v-14h-4.2v-25.1h3.5V5.92h34v17.1h11.1v27.7Z"/>
    <path class="cls-2" d="M106.88,83.3l-33.55-5.49L85.95.64l33.55,5.49-2.6,15.89c-2.52.53-5.06,1.11-7.63,1.74-2.57.63-5.16,1.5-7.78,2.63l.47,3.32c2.46-1.02,5.27-1.94,8.41-2.78,3.14-.84,6.36-1.51,9.65-2.02,3.29-.51,6.5-.81,9.62-.91,3.12-.1,5.97.06,8.53.48,2.83.46,5.21,1.17,7.15,2.13,1.94.96,3.44,2.27,4.52,3.93,1.08,1.66,1.73,3.68,1.95,6.04.22,2.37.06,5.23-.49,8.58l-7.23,44.21-33.55-5.49,5.2-31.78-3.88.78-4.97,30.4Z"/>
    <g>
      <path class="cls-3" d="M222.88,60.54c1.23,9.66-.88,17.4-6.33,23.23-5.44,5.83-13.62,9.44-24.53,10.82-5.09.65-10.28.95-15.56.92-5.28-.04-9.89-.48-13.83-1.32l-2.87-22.62c2.73.86,5.57,1.49,8.51,1.89,2.94.4,5.83.54,8.67.41,2.84-.13,5.55-.47,8.13-1.03,2.58-.56,4.85-1.34,6.81-2.33l-.39-3.08c-5.11,2.13-9.97,3.23-14.6,3.31s-8.76-.8-12.38-2.66c-3.63-1.86-6.66-4.66-9.08-8.42-2.43-3.76-3.99-8.41-4.7-13.97l-3.55-27.98,32.74-4.15,4.05,31.94,3.49-1.85-3.88-30.56,32.74-4.15,6.55,51.59Z"/>
      <ellipse class="cls-1" cx="169.19" cy="56.42" rx="10.37" ry="5.7" transform="translate(111.65 225.23) rotate(-89.62)"/>
      <ellipse class="cls-1" cx="182.48" cy="56.55" rx="10.37" ry="5.7" transform="translate(124.73 238.64) rotate(-89.62)"/>
    </g>
    <g>
      <path class="cls-4" d="M72.69,33.91c.3,4.79-.24,8.83-1.6,12.12-1.37,3.29-3.21,6.18-5.52,8.66l12.4,26.98-34.33,2.13-7.66-18.46h-.1s1.18,18.97,1.18,18.97l-31.94,1.98L.27,8.25l30.64-1.9c7.12-.44,13.25-.19,18.38.76,5.13.95,9.38,2.57,12.73,4.87s5.89,5.28,7.62,8.95c1.73,3.67,2.75,7.99,3.06,12.99ZM27.32,32.52l-1.64,2.61c1.46.85,3.28,1.53,5.49,2.06,2.2.53,4.52.96,6.94,1.27,2.42.32,4.84.52,7.25.6,2.41.09,4.55.07,6.41-.05l-.17-2.79c-1.86.12-3.94.11-6.21-.02-2.28-.12-4.55-.35-6.81-.68-2.26-.33-4.39-.75-6.39-1.26-2-.51-3.62-1.09-4.87-1.75Z"/>
      <ellipse class="cls-1" cx="31.78" cy="14.28" rx="7.06" ry="12.83" transform="translate(-.82 2) rotate(-3.55)"/>
      <ellipse class="cls-1" cx="48.19" cy="13.31" rx="7.06" ry="12.83" transform="translate(-.73 3.01) rotate(-3.55)"/>
    </g>
    <path class="cls-2" d="M397.66,53.12v34h-25.5v-35.2l-3.2,1.4v33.8h-26V26.02h19l3.5,3.5c1.33-1.07,2.57-1.95,3.7-2.65,1.13-.7,2.28-1.27,3.45-1.7,1.17-.43,2.4-.73,3.7-.9,1.3-.17,2.82-.25,4.55-.25,5.07,0,9,1.5,11.8,4.5,2.53-1.2,5.32-2.25,8.35-3.15,3.03-.9,6.18-1.35,9.45-1.35,5.87,0,10.22,1.85,13.05,5.55,2.83,3.7,4.25,8.95,4.25,15.75v41.8h-27v-35.2l-3.1,1.2Z"/>
    <path class="cls-4" d="M298.25,87.95l-33.31-6.83,15.71-76.61,33.31,6.83-3.23,15.77c-2.54.43-5.1.91-7.69,1.43-2.59.52-5.22,1.3-7.88,2.32l.34,3.34c2.5-.92,5.34-1.73,8.51-2.44,3.17-.71,6.42-1.25,9.73-1.63,3.31-.38,6.53-.55,9.65-.52,3.12.03,5.96.3,8.51.83,2.81.58,5.16,1.38,7.06,2.42,1.9,1.04,3.35,2.41,4.36,4.11,1.01,1.71,1.58,3.74,1.71,6.12.13,2.37-.15,5.23-.84,8.56l-9,43.89-33.31-6.83,6.47-31.54-3.91.63-6.19,30.17Z"/>
    <ellipse cx="35.29" cy="13.95" rx="2.89" ry="5.25" transform="translate(-.8 2.21) rotate(-3.55)"/>
    <ellipse cx="51.71" cy="12.98" rx="2.89" ry="5.25" transform="translate(-.7 3.23) rotate(-3.55)"/>
    <ellipse cx="167.2" cy="54.69" rx="4.24" ry="2.33" transform="translate(111.41 221.53) rotate(-89.62)"/>
    <ellipse cx="180.49" cy="54.82" rx="4.24" ry="2.33" transform="translate(124.48 234.94) rotate(-89.62)"/>
    <ellipse cx="529.6" cy="37.75" rx="2.89" ry="5.25"/>
    <ellipse cx="546.04" cy="37.8" rx="2.89" ry="5.25"/>
  </g>
</svg>